<?xml version="1.0" encoding="UTF-8"?>
<svg width="80px" height="80px" viewBox="0 0 80 80" version="1.1" xmlns="http://www.w3.org/2000/svg" xmlns:xlink="http://www.w3.org/1999/xlink">
    <!-- Generator: Sketch 52.2 (67145) - http://www.bohemiancoding.com/sketch -->
    <title>Fill 1 Copy</title>
    <desc>Created with Sketch.</desc>
    <defs>
        <radialGradient cx="50%" cy="50%" fx="50%" fy="50%" r="50%" gradientTransform="translate(0.500000,0.500000),scale(0.999985,1.000000),rotate(90.000000),translate(-0.500000,-0.500000)" id="radialGradient-1">
            <stop stop-color="#446AF3" offset="0%"></stop>
            <stop stop-color="#1A3FC4" offset="100%"></stop>
        </radialGradient>
    </defs>
    <g id="Page-1" stroke="none" stroke-width="1" fill="none" fill-rule="evenodd">
        <g id="Chapter-4-Copy" transform="translate(-755.000000, -260.000000)">
            <g id="Page"></g>
            <polygon id="Fill-1-Copy" fill="url(#radialGradient-1)" points="801.335502 260 795.000701 267.600095 788.664498 260 784.987901 269.185202 776.613508 263.915073 775.957023 273.789025 766.363644 271.363671 768.788992 280.955671 758.915064 281.61356 764.187985 289.987973 755 293.664579 762.60148 299.999394 755 306.33421 764.187985 310.012218 758.915064 318.385228 768.788992 319.043118 766.363644 328.635117 775.957023 326.211166 776.613508 336.083715 784.987901 330.812184 788.664498 339.998788 795.000701 332.39729 801.335502 339.998788 805.012099 330.812184 813.385089 336.083715 814.042977 326.211166 823.636356 328.635117 821.211008 319.043118 831.084936 318.385228 825.813417 310.012218 835 306.33421 827.399923 299.999394 835 293.664579 825.813417 289.987973 831.084936 281.61356 821.211008 280.955671 823.636356 271.363671 814.042977 273.789025 813.385089 263.915073 805.012099 269.185202"></polygon>
        </g>
    </g>
</svg>