<svg id="Layer_1" data-name="Layer 1" xmlns="http://www.w3.org/2000/svg" viewBox="0 0 61.61 60.32"><defs><style>.cls-1{fill:#1a3fc4;}</style></defs><title>LDRR_Web_Element</title><polygon class="cls-1" points="33.22 54.2 29.73 60.32 26 54.33 20.79 59.06 19.1 52.22 12.66 55.11 13.17 48.08 6.15 48.83 8.82 42.3 14.35 42.54 15.43 40.29 16.28 40.04 21.95 44.25 29.98 35.87 33.22 54.2"/><polygon class="cls-1" points="29.47 34.42 21.11 42.48 15.61 38.05 14.75 38.27 13.59 40.47 8.07 40.02 1.23 38.31 5.99 33.1 0 29.35 6.14 25.87 1.61 20.47 8.52 19.06 5.88 12.51 12.89 13.3 12.4 6.26 18.83 9.17 20.54 2.34 25.74 7.09 21.36 17.19 27.27 18.27 28.04 23.93 19.47 32.75 29.47 34.42"/><polygon class="cls-1" points="52.4 8.1 50.66 14.94 41.26 18.7 38.13 17.33 31.98 22.41 31.98 16.7 26.27 14.83 31.98 5.41 36.49 0 39.12 6.54 45.09 2.79 45.55 9.83 52.4 8.1"/><polygon class="cls-1" points="61.61 34.12 55.14 36.92 59.06 42.78 52.04 43.45 53.96 50.24 47.07 48.7 46.8 55.74 40.73 52.16 38.29 58.78 33.62 53.49 33.1 34.88 23.34 32.15 32.8 24.3 38.81 19.05 41.98 20.33 51.28 16.31 58.33 16.57 54.74 22.64 61.36 25.08 56.07 29.75 61.61 34.12"/></svg>