<?xml version="1.0" encoding="UTF-8"?>
<svg width="20px" height="16px" viewBox="0 0 20 16" version="1.1" xmlns="http://www.w3.org/2000/svg" xmlns:xlink="http://www.w3.org/1999/xlink">
    <!-- Generator: Sketch 52.2 (67145) - http://www.bohemiancoding.com/sketch -->
    <title>icon_Quote</title>
    <desc>Created with Sketch.</desc>
    <defs>
        <polygon id="path-1" points="0.000193548387 0.000192 19.5864516 0.000192 19.5864516 15.513152 0.000193548387 15.513152"></polygon>
    </defs>
    <g id="Page-1" stroke="none" stroke-width="1" fill="none" fill-rule="evenodd">
        <g id="Chapter-2" transform="translate(-120.000000, -411.000000)">
            <g id="icon_Quote_W" transform="translate(120.000000, 411.000000)">
                <g id="Quote">
                    <mask id="mask-2" fill="white">
                        <use xlink:href="#path-1"></use>
                    </mask>
                    <g id="Clip-2"></g>
                    <path d="M16.606,5.875008 C16.606,7.295808 19.5866452,7.526208 19.5866452,11.020608 C19.5866452,13.593408 17.7285806,15.513408 15.1350323,15.513408 C12.3479355,15.513408 10.5285806,13.055808 10.5285806,10.444608 C10.5285806,5.951808 14.7866452,-0.000192 17.4189032,-0.000192 C18.0769677,-0.000192 19.2769677,0.461248 19.2769677,1.267008 C19.2769677,2.074048 16.606,3.455808 16.606,5.875008 M6.0776129,5.875008 C6.0776129,7.295808 9.0576129,7.526208 9.0576129,11.020608 C9.0576129,13.593408 7.19954839,15.513408 4.60664516,15.513408 C1.81954839,15.513408 0.000193548387,13.055808 0.000193548387,10.444608 C0.000193548387,5.951808 4.25825806,-0.000192 6.88987097,-0.000192 C7.54793548,-0.000192 8.74793548,0.461248 8.74793548,1.267008 C8.74793548,2.074048 6.0776129,3.455808 6.0776129,5.875008" id="Fill-1" fill="#FFFFFF" mask="url(#mask-2)"></path>
                </g>
            </g>
        </g>
    </g>
</svg>