<svg id="Layer_1" data-name="Layer 1" xmlns="http://www.w3.org/2000/svg" viewBox="0 0 171.08 151.66"><defs><style>.cls-1,.cls-4{fill:#fff;}.cls-1,.cls-2,.cls-3{stroke:#fff;stroke-linecap:round;}.cls-1,.cls-2{stroke-linejoin:round;}.cls-2,.cls-3{fill:none;}.cls-3{stroke-miterlimit:10;}</style></defs><title>ldrr-logo</title><path class="cls-1" d="M17.32,98.53A57.42,57.42,0,0,1,98.53,17.32Z"/><path class="cls-1" d="M72.55,81.71A57.42,57.42,0,0,0,153.76.5Z"/><line class="cls-2" x1="98.53" y1="17.32" x2="153.76" y2="0.5"/><line class="cls-3" x1="17.32" y1="98.53" x2="72.55" y2="81.71"/><rect class="cls-4" x="11.84" y="119.12" width="5.86" height="11.43"/><polygon class="cls-4" points="11.84 151.66 33.35 151.66 33.35 146.13 17.7 146.13 17.7 140.23 11.84 140.23 11.84 151.66"/><path class="cls-4" d="M54.41,124.38h5.36q5.08,0,7.3,2.58a8.42,8.42,0,0,1,1.72,3.59h5.93a14.35,14.35,0,0,0-3.47-7.29q-3.91-4.14-11.47-4.14H48.56v11.43h5.85Z"/><path class="cls-4" d="M67.07,143.82q-2.22,2.56-7.3,2.57H54.41v-6.16H48.56v11.43H59.78q7.59,0,11.48-4.15a14.27,14.27,0,0,0,3.46-7.28H68.79A8.54,8.54,0,0,1,67.07,143.82Z"/><polygon class="cls-4" points="110.57 151.66 117.64 151.66 109.79 140.23 102.84 140.23 110.57 151.66"/><rect class="cls-4" x="91.68" y="140.23" width="5.86" height="11.43"/><path class="cls-4" d="M97.54,124.65H104a8.79,8.79,0,0,1,4.66,1c1.13.69,1.7,2,1.7,4,0,.29,0,.56,0,.82h5.86q0-.47,0-1c0-3.36-1-6-3.17-7.76s-5.07-2.71-8.89-2.71H91.68v11.43h5.86Z"/><path class="cls-4" d="M139.14,124.65h6.48a8.79,8.79,0,0,1,4.66,1c1.13.69,1.7,2,1.7,4,0,.29,0,.56,0,.82h5.86q0-.47,0-1c0-3.36-1.05-6-3.17-7.76s-5.07-2.71-8.89-2.71H133.28v11.43h5.86Z"/><polygon class="cls-4" points="152.17 151.66 159.24 151.66 151.39 140.23 144.44 140.23 152.17 151.66"/><rect class="cls-4" x="133.28" y="140.23" width="5.86" height="11.43"/></svg>